<?xml version="1.0" encoding="UTF-8" standalone="no"?>
<svg
   xmlns:dc="http://purl.org/dc/elements/1.1/"
   xmlns:cc="http://creativecommons.org/ns#"
   xmlns:rdf="http://www.w3.org/1999/02/22-rdf-syntax-ns#"
   xmlns:svg="http://www.w3.org/2000/svg"
   xmlns="http://www.w3.org/2000/svg"
   version="1.1"
   id="svg2"
   xml:space="preserve"
   width="309.37747"
   height="80.09893"
   viewBox="0 0 309.37747 80.09893"><metadata
     id="metadata8"><rdf:RDF><cc:Work
         rdf:about=""><dc:format>image/svg+xml</dc:format><dc:type
           rdf:resource="http://purl.org/dc/dcmitype/StillImage" /><dc:title></dc:title></cc:Work></rdf:RDF></metadata><defs
     id="defs6" /><g
     id="g10"
     transform="matrix(1.3333333,0,0,-1.3333333,-34.907866,114.4088)"><path
       d="M 26.1809,85.8066 V 57.427 H 54.5613 V 85.8066 H 26.1809"
       style="fill:#e6e6e6;fill-opacity:1;fill-rule:nonzero;stroke:none;stroke-width:0.1"
       id="path14" /><path
       style="color:#000000;font-style:normal;font-variant:normal;font-weight:normal;font-stretch:normal;font-size:medium;line-height:normal;font-family:sans-serif;font-variant-ligatures:normal;font-variant-position:normal;font-variant-caps:normal;font-variant-numeric:normal;font-variant-alternates:normal;font-variant-east-asian:normal;font-feature-settings:normal;font-variation-settings:normal;text-indent:0;text-align:start;text-decoration:none;text-decoration-line:none;text-decoration-style:solid;text-decoration-color:#000000;letter-spacing:normal;word-spacing:normal;text-transform:none;writing-mode:lr-tb;direction:ltr;text-orientation:mixed;dominant-baseline:auto;baseline-shift:baseline;text-anchor:start;white-space:normal;shape-padding:0;shape-margin:0;inline-size:0;clip-rule:nonzero;display:inline;overflow:visible;visibility:visible;isolation:auto;mix-blend-mode:normal;color-interpolation:sRGB;color-interpolation-filters:linearRGB;solid-color:#000000;solid-opacity:1;vector-effect:none;fill:#e6e6e6;fill-opacity:1;fill-rule:nonzero;stroke:none;stroke-width:1.30572;stroke-linecap:butt;stroke-linejoin:miter;stroke-miterlimit:4;stroke-dasharray:none;stroke-dashoffset:0;stroke-opacity:1;color-rendering:auto;image-rendering:auto;shape-rendering:auto;text-rendering:auto;enable-background:accumulate;stop-color:#000000;stop-opacity:1;opacity:1"
       d="M 26.181641 26.181641 L 26.181641 54.550781 L 26.833984 54.550781 L 54.550781 54.550781 L 54.550781 26.181641 L 26.181641 26.181641 z M 27.486328 27.486328 L 53.246094 27.486328 L 53.246094 53.246094 L 27.486328 53.246094 L 27.486328 27.486328 z "
       id="path881" /><path
       d="m 223.645,26.1969 h 3.637 v 10.1554 l 8.823,-10.1554 h 5.224 l -10.332,11.0082 9.172,8.7597 h -4.954 l -7.933,-8.0234 v 16.5594 h -3.637 V 26.1969"
       style="fill:#e6e6e6;fill-opacity:1;fill-rule:nonzero;stroke:none;stroke-width:0.1"
       id="path18" /><path
       d="m 144.117,26.1969 h 3.482 v 2.7863 h 0.078 c 0.967,-1.4703 3.212,-3.2508 6.733,-3.2508 5.96,0 8.475,5.2633 8.475,10.6809 0,5.3015 -2.786,9.984 -8.513,9.984 -3.445,0 -5.418,-1.3543 -6.54,-3.1735 h -0.078 v 11.2313 h -3.637 z m 14.898,9.9453 c 0.078,-3.0957 -1.548,-7.4684 -5.456,-7.4684 -4.102,0 -5.805,4.0629 -5.805,7.3524 0,3.6761 1.896,7.4301 5.844,7.4301 3.947,0 5.495,-3.754 5.417,-7.3141"
       style="fill:#e6e6e6;fill-opacity:1;fill-rule:nonzero;stroke:none;stroke-width:0.1"
       id="path20" /><path
       d="m 71.4918,26.2195 h 3.6375 V 45.9551 H 71.4918 V 26.2195"
       style="fill:#e6e6e6;fill-opacity:1;fill-rule:nonzero;stroke:none;stroke-width:0.1"
       id="path22" /><path
       d="m 71.4918,50.9457 h 3.6375 v 3.6375 h -3.6375 v -3.6375"
       style="fill:#e6e6e6;fill-opacity:1;fill-rule:nonzero;stroke:none;stroke-width:0.1"
       id="path24" /><path
       d="m 81.7809,26.1969 h 3.6375 v 9.1328 c 0,4.7984 1.8574,8.1266 5.998,8.1266 3.1734,-0.1934 4.1797,-2.4379 4.1797,-7.043 V 26.1969 h 3.6375 v 11.7254 c 0,5.3015 -2.2832,8.475 -7.3914,8.475 -2.7477,0 -5.3789,-1.3543 -6.4625,-3.5989 h -0.0774 v 3.1344 h -3.5214 z m 23.6441,0 h 3.637 v 9.1328 c 0,4.7984 1.858,8.1266 5.999,8.1266 3.173,-0.1934 4.179,-2.4379 4.179,-7.043 V 26.1969 h 3.638 v 11.7254 c 0,5.3015 -2.284,8.475 -7.392,8.475 -2.747,0 -5.379,-1.3543 -6.462,-3.5989 h -0.078 v 3.1344 h -3.521 z m 21.98,0.6191 c 1.664,-0.8898 3.56,-1.0836 5.418,-1.0836 3.521,0 6.888,1.9352 6.888,6.1531 0,6.3079 -8.552,5.1469 -8.552,9.1715 0,1.625 1.625,2.3993 3.482,2.3993 0.852,0 3.019,-0.5032 3.831,-1.0063 l 0.31,3.173 c -1.432,0.4258 -2.825,0.7743 -4.528,0.7743 -3.908,0 -6.965,-1.9739 -6.965,-6.0754 0,-5.534 8.552,-5.2242 8.552,-8.8235 0,-2.1281 -2.051,-2.8246 -3.715,-2.8246 -1.045,0 -3.096,0.4641 -4.528,1.393 z m 40.361,-0.6191 h 3.638 v 8.9781 c 0,4.9531 2.128,8.0488 5.379,8.0488 0.619,0 1.354,-0.0773 2.012,-0.348 v 3.2504 c -0.774,0.1551 -1.316,0.2711 -2.399,0.2711 -2.09,0 -4.18,-1.4707 -5.147,-3.5215 h -0.077 v 3.057 h -3.406 z m 32.506,19.7359 h -3.638 v -9.1324 c 0,-4.7988 -1.857,-8.1266 -5.998,-8.1266 -3.173,0.1934 -4.179,2.4379 -4.179,7.043 v 10.216 h -3.638 V 34.2074 c 0,-5.3015 2.283,-8.475 7.392,-8.475 2.747,0 5.379,1.3547 6.462,3.5992 h 0.077 v -3.1347 h 3.522 z m 19.039,-0.3098 c -1.045,0.4258 -2.941,0.7743 -4.412,0.7743 -6.036,0 -10.061,-4.334 -10.061,-10.3325 0,-5.6496 4.102,-10.3324 10.061,-10.3324 1.316,0 3.058,0.1164 4.567,0.8129 l -0.271,3.2508 c -1.122,-0.7356 -2.67,-1.1223 -3.909,-1.1223 -4.682,0 -6.578,3.8696 -6.578,7.391 0,3.754 2.283,7.3915 6.346,7.3915 1.161,0 2.554,-0.2711 3.947,-0.8516 l 0.31,3.0183"
       style="fill:#e6e6e6;fill-opacity:1;fill-rule:nonzero;stroke:none;stroke-width:0.1"
       id="path26" /><path
       d="m 221.35,77.2477 h -5.224 v 6.7472 l -3.637,-1.1605 v -5.5867 h -4.451 v -2.9414 h 4.451 V 62.7746 c 0,-3.9473 2.322,-5.7273 6.075,-5.7273 1.161,0 2.283,0.3097 3.096,0.5418 v 3.0957 c -0.542,-0.3481 -1.354,-0.6965 -2.477,-0.6965 -1.664,0 -3.057,1.2383 -3.057,3.5215 v 10.7965 h 5.224 v 2.9414"
       style="fill:#e6e6e6;fill-opacity:1;fill-rule:nonzero;stroke:none;stroke-width:0.1"
       id="path28" /><path
       d="m 257.905,77.2477 h -5.224 v 6.7472 l -3.638,-1.1605 v -5.5867 h -4.45 v -2.9414 h 4.45 V 62.7746 c 0,-3.9473 2.322,-5.7273 6.076,-5.7273 1.16,0 2.283,0.3097 3.095,0.5418 v 3.0957 c -0.541,-0.3481 -1.354,-0.6965 -2.476,-0.6965 -1.664,0 -3.057,1.2383 -3.057,3.5215 v 10.7965 h 5.224 v 2.9414"
       style="fill:#e6e6e6;fill-opacity:1;fill-rule:nonzero;stroke:none;stroke-width:0.1"
       id="path30" /><path
       d="m 200.549,82.1672 h 3.637 v 3.6379 h -3.637 v -3.6379"
       style="fill:#e6e6e6;fill-opacity:1;fill-rule:nonzero;stroke:none;stroke-width:0.1"
       id="path32" /><path
       d="m 118.829,82.1672 h 3.637 v 3.6379 h -3.637 v -3.6379"
       style="fill:#e6e6e6;fill-opacity:1;fill-rule:nonzero;stroke:none;stroke-width:0.1"
       id="path34" /><path
       d="m 228.574,80.3484 h 3.638 v 3.6379 h -3.638 v -3.6379"
       style="fill:#e6e6e6;fill-opacity:1;fill-rule:nonzero;stroke:none;stroke-width:0.1"
       id="path36" /><path
       d="m 234.886,80.3484 h 3.637 v 3.6379 h -3.637 v -3.6379"
       style="fill:#e6e6e6;fill-opacity:1;fill-rule:nonzero;stroke:none;stroke-width:0.1"
       id="path38" /><path
       d="m 88.5262,77.1727 h -3.6379 v -9.1329 c 0,-4.7984 -1.8574,-8.1265 -5.9981,-8.1265 -3.173,0.1933 -4.1793,2.4379 -4.1793,7.043 V 77.1727 H 71.0734 V 65.4473 c 0,-5.3016 2.2829,-8.475 7.3911,-8.475 2.7476,0 5.3789,1.3543 6.4625,3.5988 h 0.0777 v -3.1344 h 3.5215 z m 6.191,-19.736 h 3.6379 v 9.1324 c 0,4.7989 1.8569,8.1266 5.9979,8.1266 3.173,-0.1934 4.179,-2.4379 4.179,-7.043 v -10.216 h 3.638 v 11.7254 c 0,5.3016 -2.283,8.4746 -7.391,8.4746 -2.748,0 -5.379,-1.3543 -6.463,-3.5988 h -0.0773 v 3.1348 h -3.5215 z m 24.1088,0 h 3.637 v 19.736 h -3.637 z m 26.121,19.736 h -3.638 l -5.456,-16.0985 h -0.078 l -5.34,16.0985 h -3.986 l 7.082,-19.736 h 4.334 z m 18.652,-15.286 c -0.89,-0.7351 -3.676,-1.9734 -6.075,-1.9734 -3.445,0 -6.502,2.6703 -6.502,6.5785 h 14.086 c 0,6.3465 -2.128,11.1449 -8.707,11.1449 -5.572,0 -9.248,-4.1406 -9.248,-9.984 0,-6.4234 3.212,-10.6804 10.216,-10.6804 3.25,0 4.837,0.7742 6.23,1.2769 z m -12.577,7.3141 c 0.271,2.5539 1.742,5.4949 5.302,5.4949 3.134,0 4.915,-2.4766 4.915,-5.4949 z m 18.962,-11.7641 h 3.638 v 8.9778 c 0,4.9535 2.128,8.0492 5.379,8.0492 0.619,0 1.354,-0.0774 2.012,-0.3485 v 3.2508 c -0.774,0.1547 -1.316,0.2707 -2.399,0.2707 -2.09,0 -4.179,-1.4703 -5.147,-3.5215 h -0.077 v 3.0575 h -3.406 z m 13.389,0.6192 c 1.664,-0.8903 3.561,-1.0836 5.418,-1.0836 3.522,0 6.888,1.9347 6.888,6.1531 0,6.3078 -8.552,5.1465 -8.552,9.1711 0,1.6254 1.625,2.3992 3.483,2.3992 0.851,0 3.018,-0.5027 3.831,-1.0059 l 0.31,3.1731 c -1.432,0.4258 -2.825,0.7738 -4.528,0.7738 -3.909,0 -6.966,-1.9734 -6.966,-6.0754 0,-5.5336 8.553,-5.2242 8.553,-8.823 0,-2.1285 -2.051,-2.825 -3.715,-2.825 -1.045,0 -3.096,0.4644 -4.528,1.3933 z m 17.182,-0.6192 h 3.638 v 19.736 h -3.638 z m 26.469,15.2469 c 1.47,1.2383 3.676,2.0121 5.727,2.0121 3.638,0 4.876,-1.741 4.876,-5.1465 -1.432,0.0774 -2.438,0.0774 -3.87,0.0774 -3.753,0 -9.171,-1.5481 -9.171,-6.5012 0,-4.2957 2.98,-6.1531 7.236,-6.1531 3.328,0 5.263,1.8187 6.115,3.0183 h 0.077 v -2.5539 h 3.406 c -0.078,0.5805 -0.155,1.6254 -0.155,3.8699 v 8.1653 c 0,5.3789 -2.283,8.1648 -7.933,8.1648 -2.516,0 -4.683,-0.7738 -6.502,-1.8574 z m 10.603,-7.5848 c 0,-2.941 -1.896,-5.1855 -5.495,-5.1855 -1.664,0 -3.676,1.1222 -3.676,3.2121 0,3.4828 4.876,3.7922 6.849,3.7922 0.774,0 1.548,-0.0774 2.322,-0.0774 v -1.7414"
       style="fill:#e6e6e6;fill-opacity:1;fill-rule:nonzero;stroke:none;stroke-width:0.1"
       id="path40" /></g></svg>
